<svg width="16" height="16" viewBox="0 0 16 16" fill="none" xmlns="http://www.w3.org/2000/svg">
<path fill-rule="evenodd" clip-rule="evenodd" d="M0.666748 8.00002C0.666748 3.94993 3.94999 0.666687 8.00008 0.666687C12.0502 0.666687 15.3334 3.94993 15.3334 8.00002C15.3334 12.0501 12.0502 15.3334 8.00008 15.3334C3.94999 15.3334 0.666748 12.0501 0.666748 8.00002Z" fill="#333333"/>
<path fill-rule="evenodd" clip-rule="evenodd" d="M11.5405 5.362C11.8009 5.62235 11.8009 6.04446 11.5405 6.30481L7.40248 10.6381C7.14213 10.8985 6.72002 10.8985 6.45967 10.6381L4.45967 8.63814C4.19932 8.37779 4.19932 7.95568 4.45967 7.69533C4.72002 7.43498 5.14213 7.43498 5.40248 7.69533L6.93107 9.22393L10.5977 5.362C10.8581 5.10165 11.2802 5.10165 11.5405 5.362Z" fill="white"/>
</svg>
